<?xml version="1.0" encoding="UTF-8"?>
<svg width="50px" height="48px" viewBox="0 0 48 48" version="1.1" xmlns="http://www.w3.org/2000/svg" xmlns:xlink="http://www.w3.org/1999/xlink">
    <defs>
        <polygon id="path-1" points="0.018 0.268679245 293.85 0.268679245 293.85 48 0.018 48"/>
    </defs>
    <g id="logo" stroke="none" stroke-width="1" fill="none" fill-rule="evenodd">
        <g id="Full-vector">
            <mask id="mask-2" fill="white">
                <use xlink:href="#path-1"/>
            </mask>
            <g id="Clip-2"/>
            <path d="M9.975,19.1532075 C19.149,19.1532075 28.326,19.1532075 37.5,19.1532075 C37.5,16.1856604 37.5,13.2150943 37.5,10.2475472 C28.326,10.2475472 19.149,10.2475472 9.975,10.2475472 C9.975,13.2150943 9.975,16.1826415 9.975,19.1532075 Z M0,0.345660377 C2.301,0.218867925 4.605,0.315471698 6.909,0.285283019 C20.427,0.315471698 33.945,0.22490566 47.463,0.330566038 C47.484,16.2007547 47.484,32.0679245 47.463,47.9381132 C44.142,48.0015094 40.818,48.0316981 37.5,47.9230189 C37.5,41.6528302 37.5,35.3856604 37.5,29.1154717 C28.326,29.1154717 19.149,29.1154717 9.975,29.1154717 C9.966,35.3886792 9.993,41.6618868 9.963,47.9381132 C6.642,48.0048302 3.318,48.0316981 0,47.9230189 C0,32.0618868 0,16.2037736 0,0.345660377 L0,0.345660377 Z" id="Fill-7" fill="#90C03F" mask="url(#mask-2)"/>
        </g>
    </g>
</svg>